<svg width="212" height="35" viewBox="0 0 212 35" fill="none" xmlns="http://www.w3.org/2000/svg">
<path d="M0 10C0 4.47715 4.47715 0 10 0H25C30.5228 0 35 4.47715 35 10V25C35 30.5228 30.5228 35 25 35H10C4.47715 35 0 30.5228 0 25V10Z" fill="#FF7057"/>
<path d="M51.7075 27.6089H46.7515V7.47705C46.7515 6.07568 47.0249 4.89648 47.5718 3.93945C48.13 2.97103 48.9105 2.24186 49.9131 1.75195C50.9271 1.25065 52.1291 1 53.519 1C53.9748 1 54.4134 1.03418 54.835 1.10254C55.2565 1.15951 55.6667 1.23356 56.0654 1.32471L56.0142 5.0332C55.7977 4.97624 55.5698 4.93636 55.3306 4.91357C55.0913 4.89079 54.8122 4.87939 54.4932 4.87939C53.9007 4.87939 53.3937 4.98193 52.9722 5.18701C52.562 5.3807 52.2487 5.67122 52.0322 6.05859C51.8158 6.44596 51.7075 6.91878 51.7075 7.47705V27.6089ZM55.3989 9.11768V12.604H44V9.11768H55.3989Z" fill="#403D44"/>
<path d="M57.1934 18.5513V18.1924C57.1934 16.8366 57.387 15.589 57.7744 14.4497C58.1618 13.299 58.7257 12.3021 59.4663 11.459C60.2069 10.6159 61.1183 9.96077 62.2007 9.49365C63.283 9.01514 64.5249 8.77588 65.9263 8.77588C67.3276 8.77588 68.5752 9.01514 69.6689 9.49365C70.7627 9.96077 71.6799 10.6159 72.4204 11.459C73.1724 12.3021 73.742 13.299 74.1294 14.4497C74.5168 15.589 74.7104 16.8366 74.7104 18.1924V18.5513C74.7104 19.8957 74.5168 21.1432 74.1294 22.2939C73.742 23.4333 73.1724 24.4302 72.4204 25.2847C71.6799 26.1278 70.7684 26.7829 69.686 27.25C68.6037 27.7171 67.3618 27.9507 65.9604 27.9507C64.5591 27.9507 63.3115 27.7171 62.2178 27.25C61.1354 26.7829 60.2183 26.1278 59.4663 25.2847C58.7257 24.4302 58.1618 23.4333 57.7744 22.2939C57.387 21.1432 57.1934 19.8957 57.1934 18.5513ZM62.1152 18.1924V18.5513C62.1152 19.326 62.1836 20.0495 62.3203 20.7217C62.457 21.3939 62.6735 21.9863 62.9697 22.499C63.2773 23.0003 63.6761 23.3934 64.166 23.6782C64.6559 23.9631 65.2541 24.1055 65.9604 24.1055C66.644 24.1055 67.2308 23.9631 67.7207 23.6782C68.2106 23.3934 68.6037 23.0003 68.8999 22.499C69.1961 21.9863 69.4126 21.3939 69.5493 20.7217C69.6974 20.0495 69.7715 19.326 69.7715 18.5513V18.1924C69.7715 17.4404 69.6974 16.734 69.5493 16.0732C69.4126 15.401 69.1904 14.8086 68.8828 14.2959C68.5866 13.7718 68.1935 13.3617 67.7036 13.0654C67.2137 12.7692 66.6213 12.6211 65.9263 12.6211C65.2313 12.6211 64.6388 12.7692 64.1489 13.0654C63.6704 13.3617 63.2773 13.7718 62.9697 14.2959C62.6735 14.8086 62.457 15.401 62.3203 16.0732C62.1836 16.734 62.1152 17.4404 62.1152 18.1924Z" fill="#403D44"/>
<path d="M85.3745 24.1055C85.9784 24.1055 86.5138 23.9915 86.981 23.7637C87.4481 23.5244 87.8127 23.194 88.0747 22.7725C88.3481 22.3395 88.4906 21.8325 88.502 21.2515H93.1333C93.1219 22.5503 92.7744 23.7067 92.0908 24.7207C91.4072 25.7233 90.4901 26.5151 89.3394 27.0962C88.1886 27.6659 86.9012 27.9507 85.4771 27.9507C84.0415 27.9507 82.7882 27.7114 81.7173 27.2329C80.6577 26.7544 79.7747 26.0936 79.0684 25.2505C78.362 24.396 77.8322 23.4048 77.479 22.2769C77.1258 21.1375 76.9492 19.9185 76.9492 18.6196V18.124C76.9492 16.8138 77.1258 15.5947 77.479 14.4668C77.8322 13.3275 78.362 12.3363 79.0684 11.4932C79.7747 10.6387 80.6577 9.97217 81.7173 9.49365C82.7769 9.01514 84.0187 8.77588 85.4429 8.77588C86.9582 8.77588 88.2855 9.06641 89.4248 9.64746C90.5755 10.2285 91.4756 11.0602 92.125 12.1426C92.7858 13.2135 93.1219 14.4839 93.1333 15.9536H88.502C88.4906 15.3384 88.3595 14.7801 88.1089 14.2788C87.8696 13.7775 87.5164 13.3787 87.0493 13.0825C86.5936 12.7749 86.0296 12.6211 85.3574 12.6211C84.6396 12.6211 84.0529 12.7749 83.5972 13.0825C83.1414 13.3787 82.7882 13.7889 82.5376 14.313C82.2869 14.8257 82.1104 15.4124 82.0078 16.0732C81.9167 16.7227 81.8711 17.4062 81.8711 18.124V18.6196C81.8711 19.3374 81.9167 20.0267 82.0078 20.6875C82.099 21.3483 82.2699 21.9351 82.5205 22.4478C82.7826 22.9604 83.1414 23.3649 83.5972 23.6611C84.0529 23.9574 84.6453 24.1055 85.3745 24.1055Z" fill="#403D44"/>
<path d="M106.925 23.1826V9.11768H111.847V27.6089H107.215L106.925 23.1826ZM107.472 19.3887L108.924 19.3545C108.924 20.585 108.782 21.73 108.497 22.7896C108.212 23.8377 107.785 24.7492 107.215 25.5239C106.646 26.2873 105.928 26.8854 105.062 27.3184C104.196 27.7399 103.176 27.9507 102.003 27.9507C101.103 27.9507 100.271 27.8254 99.5078 27.5747C98.7559 27.3127 98.1064 26.9082 97.5596 26.3613C97.0241 25.8031 96.6025 25.091 96.2949 24.2251C95.9987 23.3478 95.8506 22.2939 95.8506 21.0635V9.11768H100.772V21.0977C100.772 21.6445 100.835 22.106 100.96 22.4819C101.097 22.8579 101.285 23.1655 101.524 23.4048C101.764 23.644 102.043 23.8149 102.362 23.9175C102.692 24.02 103.057 24.0713 103.456 24.0713C104.47 24.0713 105.267 23.8662 105.848 23.4561C106.441 23.0459 106.856 22.4876 107.096 21.7812C107.346 21.0635 107.472 20.266 107.472 19.3887Z" fill="#403D44"/>
<path d="M125.604 22.499C125.604 22.1458 125.501 21.8268 125.296 21.542C125.091 21.2572 124.71 20.9951 124.151 20.7559C123.604 20.5052 122.813 20.2773 121.776 20.0723C120.842 19.8672 119.97 19.6108 119.161 19.3032C118.364 18.9842 117.669 18.6025 117.076 18.1582C116.495 17.7139 116.039 17.1898 115.709 16.5859C115.379 15.9707 115.213 15.27 115.213 14.4839C115.213 13.7091 115.379 12.98 115.709 12.2964C116.051 11.6128 116.535 11.009 117.162 10.4849C117.8 9.94938 118.574 9.53353 119.486 9.2373C120.409 8.92969 121.445 8.77588 122.596 8.77588C124.203 8.77588 125.581 9.03223 126.732 9.54492C127.894 10.0576 128.783 10.764 129.398 11.6641C130.025 12.5527 130.338 13.5667 130.338 14.7061H125.416C125.416 14.2275 125.313 13.8003 125.108 13.4243C124.915 13.0369 124.607 12.735 124.186 12.5186C123.775 12.2907 123.24 12.1768 122.579 12.1768C122.032 12.1768 121.559 12.2736 121.161 12.4673C120.762 12.6496 120.454 12.9002 120.238 13.2192C120.033 13.5269 119.93 13.8687 119.93 14.2446C119.93 14.5295 119.987 14.7858 120.101 15.0137C120.226 15.2301 120.426 15.4295 120.699 15.6118C120.973 15.7941 121.326 15.965 121.759 16.1245C122.203 16.2726 122.75 16.4093 123.399 16.5347C124.732 16.8081 125.923 17.167 126.971 17.6113C128.019 18.0443 128.851 18.6367 129.466 19.3887C130.082 20.1292 130.389 21.1034 130.389 22.311C130.389 23.1313 130.207 23.8833 129.842 24.5669C129.478 25.2505 128.954 25.8486 128.27 26.3613C127.586 26.8626 126.766 27.2557 125.809 27.5405C124.863 27.814 123.798 27.9507 122.613 27.9507C120.893 27.9507 119.435 27.6431 118.238 27.0278C117.053 26.4126 116.153 25.6322 115.538 24.6865C114.934 23.7295 114.632 22.7497 114.632 21.7471H119.298C119.321 22.4193 119.492 22.9604 119.811 23.3706C120.141 23.7808 120.557 24.077 121.058 24.2593C121.571 24.4416 122.123 24.5327 122.716 24.5327C123.354 24.5327 123.884 24.4473 124.305 24.2764C124.727 24.0941 125.046 23.8548 125.262 23.5586C125.49 23.251 125.604 22.8978 125.604 22.499Z" fill="#403D44"/>
<path d="M138.507 12.6724V34.7183H133.585V9.11768H138.148L138.507 12.6724ZM150.213 18.1582V18.5171C150.213 19.8615 150.054 21.109 149.735 22.2598C149.427 23.4105 148.972 24.4131 148.368 25.2676C147.764 26.1107 147.012 26.7715 146.112 27.25C145.223 27.7171 144.198 27.9507 143.036 27.9507C141.908 27.9507 140.928 27.7228 140.096 27.2671C139.264 26.8114 138.564 26.1733 137.994 25.353C137.436 24.5213 136.986 23.5586 136.644 22.4648C136.302 21.3711 136.04 20.1976 135.858 18.9443V18.0044C136.04 16.66 136.302 15.4295 136.644 14.313C136.986 13.1851 137.436 12.2109 137.994 11.3906C138.564 10.5589 139.259 9.9152 140.079 9.45947C140.911 9.00374 141.885 8.77588 143.001 8.77588C144.175 8.77588 145.206 8.99805 146.095 9.44238C146.995 9.88672 147.747 10.5247 148.351 11.3564C148.966 12.1882 149.427 13.1794 149.735 14.3301C150.054 15.4808 150.213 16.7568 150.213 18.1582ZM145.274 18.5171V18.1582C145.274 17.3721 145.206 16.6486 145.069 15.9878C144.944 15.3156 144.739 14.7288 144.454 14.2275C144.181 13.7262 143.816 13.3389 143.36 13.0654C142.916 12.7806 142.375 12.6382 141.737 12.6382C141.065 12.6382 140.489 12.7464 140.011 12.9629C139.544 13.1794 139.162 13.4927 138.866 13.9028C138.569 14.313 138.347 14.8029 138.199 15.3726C138.051 15.9422 137.96 16.5859 137.926 17.3037V19.6792C137.983 20.5223 138.142 21.2799 138.404 21.9521C138.666 22.613 139.071 23.137 139.618 23.5244C140.165 23.9118 140.882 24.1055 141.771 24.1055C142.42 24.1055 142.967 23.9631 143.412 23.6782C143.856 23.382 144.215 22.9775 144.488 22.4648C144.773 21.9521 144.972 21.3597 145.086 20.6875C145.212 20.0153 145.274 19.2918 145.274 18.5171Z" fill="#403D44"/>
<path d="M152.486 18.5513V18.1924C152.486 16.8366 152.68 15.589 153.067 14.4497C153.455 13.299 154.019 12.3021 154.759 11.459C155.5 10.6159 156.411 9.96077 157.494 9.49365C158.576 9.01514 159.818 8.77588 161.219 8.77588C162.621 8.77588 163.868 9.01514 164.962 9.49365C166.056 9.96077 166.973 10.6159 167.713 11.459C168.465 12.3021 169.035 13.299 169.422 14.4497C169.81 15.589 170.003 16.8366 170.003 18.1924V18.5513C170.003 19.8957 169.81 21.1432 169.422 22.2939C169.035 23.4333 168.465 24.4302 167.713 25.2847C166.973 26.1278 166.061 26.7829 164.979 27.25C163.897 27.7171 162.655 27.9507 161.253 27.9507C159.852 27.9507 158.604 27.7171 157.511 27.25C156.428 26.7829 155.511 26.1278 154.759 25.2847C154.019 24.4302 153.455 23.4333 153.067 22.2939C152.68 21.1432 152.486 19.8957 152.486 18.5513ZM157.408 18.1924V18.5513C157.408 19.326 157.477 20.0495 157.613 20.7217C157.75 21.3939 157.966 21.9863 158.263 22.499C158.57 23.0003 158.969 23.3934 159.459 23.6782C159.949 23.9631 160.547 24.1055 161.253 24.1055C161.937 24.1055 162.524 23.9631 163.014 23.6782C163.504 23.3934 163.897 23.0003 164.193 22.499C164.489 21.9863 164.706 21.3939 164.842 20.7217C164.99 20.0495 165.064 19.326 165.064 18.5513V18.1924C165.064 17.4404 164.99 16.734 164.842 16.0732C164.706 15.401 164.483 14.8086 164.176 14.2959C163.88 13.7718 163.486 13.3617 162.997 13.0654C162.507 12.7692 161.914 12.6211 161.219 12.6211C160.524 12.6211 159.932 12.7692 159.442 13.0654C158.963 13.3617 158.57 13.7718 158.263 14.2959C157.966 14.8086 157.75 15.401 157.613 16.0732C157.477 16.734 157.408 17.4404 157.408 18.1924Z" fill="#403D44"/>
<path d="M178.224 9.11768V27.6089H173.285V9.11768H178.224ZM172.977 4.29834C172.977 3.58057 173.228 2.98812 173.729 2.521C174.23 2.05387 174.903 1.82031 175.746 1.82031C176.577 1.82031 177.244 2.05387 177.745 2.521C178.258 2.98812 178.514 3.58057 178.514 4.29834C178.514 5.01611 178.258 5.60856 177.745 6.07568C177.244 6.54281 176.577 6.77637 175.746 6.77637C174.903 6.77637 174.23 6.54281 173.729 6.07568C173.228 5.60856 172.977 5.01611 172.977 4.29834Z" fill="#403D44"/>
<path d="M187.11 13.0654V27.6089H182.188V9.11768H186.803L187.11 13.0654ZM186.393 17.7139H185.06C185.06 16.3467 185.236 15.1162 185.589 14.0225C185.943 12.9173 186.438 11.9774 187.076 11.2026C187.714 10.4165 188.472 9.81836 189.349 9.4082C190.238 8.98665 191.229 8.77588 192.323 8.77588C193.189 8.77588 193.98 8.9012 194.698 9.15186C195.416 9.40251 196.031 9.80127 196.544 10.3481C197.068 10.895 197.467 11.6185 197.74 12.5186C198.025 13.4186 198.167 14.5181 198.167 15.8169V27.6089H193.211V15.7998C193.211 14.9795 193.097 14.3415 192.87 13.8857C192.642 13.43 192.306 13.111 191.861 12.9287C191.428 12.735 190.893 12.6382 190.255 12.6382C189.594 12.6382 189.019 12.7692 188.529 13.0312C188.05 13.2933 187.652 13.6579 187.333 14.125C187.025 14.5807 186.791 15.1162 186.632 15.7314C186.472 16.3467 186.393 17.0075 186.393 17.7139Z" fill="#403D44"/>
<path d="M210.968 9.11768V12.604H200.201V9.11768H210.968ZM202.867 4.55469H207.789V22.0376C207.789 22.5731 207.857 22.9832 207.994 23.2681C208.142 23.5529 208.359 23.7523 208.644 23.8662C208.928 23.9688 209.287 24.02 209.72 24.02C210.028 24.02 210.301 24.0086 210.541 23.9858C210.791 23.9517 211.002 23.9175 211.173 23.8833L211.19 27.5063C210.768 27.6431 210.313 27.7513 209.823 27.8311C209.333 27.9108 208.792 27.9507 208.199 27.9507C207.117 27.9507 206.171 27.7741 205.362 27.4209C204.565 27.0563 203.95 26.4753 203.517 25.6777C203.084 24.8802 202.867 23.832 202.867 22.5332V4.55469Z" fill="#403D44"/>
</svg>
