<svg width="79" height="37" viewBox="0 0 79 37" fill="none" xmlns="http://www.w3.org/2000/svg">
<path d="M0 10C0 4.47715 4.47715 0 10 0H69C74.5228 0 79 4.47715 79 10V27C79 32.5228 74.5228 37 69 37H10C4.47715 37 0 32.5228 0 27V10Z" fill="white"/>
<path d="M28.6719 21.2793C28.6719 21.0254 28.6328 20.7975 28.5547 20.5957C28.4831 20.3874 28.3464 20.1986 28.1445 20.0293C27.9427 19.8535 27.6595 19.681 27.2949 19.5117C26.9303 19.3424 26.4583 19.1667 25.8789 18.9844C25.2344 18.776 24.6224 18.5417 24.043 18.2812C23.4701 18.0208 22.9622 17.7181 22.5195 17.373C22.0833 17.0215 21.7383 16.6146 21.4844 16.1523C21.237 15.6901 21.1133 15.153 21.1133 14.541C21.1133 13.9486 21.2435 13.4115 21.5039 12.9297C21.7643 12.4414 22.1289 12.0247 22.5977 11.6797C23.0664 11.3281 23.6198 11.0579 24.2578 10.8691C24.9023 10.6803 25.6087 10.5859 26.377 10.5859C27.4251 10.5859 28.3398 10.7747 29.1211 11.1523C29.9023 11.5299 30.5078 12.0475 30.9375 12.7051C31.3737 13.3626 31.5918 14.1146 31.5918 14.9609H28.6816C28.6816 14.5443 28.5938 14.1797 28.418 13.8672C28.2487 13.5482 27.9883 13.2975 27.6367 13.1152C27.2917 12.9329 26.8555 12.8418 26.3281 12.8418C25.8203 12.8418 25.3971 12.9199 25.0586 13.0762C24.7201 13.2259 24.4661 13.431 24.2969 13.6914C24.1276 13.9453 24.043 14.2318 24.043 14.5508C24.043 14.7917 24.1016 15.0098 24.2188 15.2051C24.3424 15.4004 24.5247 15.5827 24.7656 15.752C25.0065 15.9212 25.3027 16.0807 25.6543 16.2305C26.0059 16.3802 26.4128 16.5267 26.875 16.6699C27.6497 16.9043 28.3301 17.168 28.916 17.4609C29.5085 17.7539 30.0033 18.0827 30.4004 18.4473C30.7975 18.8118 31.097 19.2253 31.2988 19.6875C31.5007 20.1497 31.6016 20.6738 31.6016 21.2598C31.6016 21.8783 31.4811 22.4316 31.2402 22.9199C30.9993 23.4082 30.651 23.8216 30.1953 24.1602C29.7396 24.4987 29.196 24.7559 28.5645 24.9316C27.9329 25.1074 27.2266 25.1953 26.4453 25.1953C25.7422 25.1953 25.0488 25.1042 24.3652 24.9219C23.6816 24.7331 23.0599 24.4499 22.5 24.0723C21.9466 23.6947 21.5039 23.2129 21.1719 22.627C20.8398 22.041 20.6738 21.3477 20.6738 20.5469H23.6133C23.6133 20.9896 23.6816 21.3639 23.8184 21.6699C23.9551 21.9759 24.1471 22.2233 24.3945 22.4121C24.6484 22.6009 24.9479 22.7376 25.293 22.8223C25.6445 22.9069 26.0286 22.9492 26.4453 22.9492C26.9531 22.9492 27.3698 22.8776 27.6953 22.7344C28.0273 22.5911 28.2715 22.3926 28.4277 22.1387C28.5905 21.8848 28.6719 21.5983 28.6719 21.2793Z" fill="black"/>
<path d="M36.2305 9.99023V25H33.418V9.99023H36.2305ZM42.8906 14.4336L38.3008 19.668L35.8398 22.1582L34.8145 20.127L36.7676 17.6465L39.5117 14.4336H42.8906ZM39.9707 25L36.8457 20.1172L38.7891 18.418L43.2129 25H39.9707Z" fill="black"/>
<path d="M47.0703 14.4336V25H44.248V14.4336H47.0703ZM44.0723 11.6797C44.0723 11.2695 44.2155 10.931 44.502 10.6641C44.7884 10.3971 45.1725 10.2637 45.6543 10.2637C46.1296 10.2637 46.5104 10.3971 46.7969 10.6641C47.0898 10.931 47.2363 11.2695 47.2363 11.6797C47.2363 12.0898 47.0898 12.4284 46.7969 12.6953C46.5104 12.9622 46.1296 13.0957 45.6543 13.0957C45.1725 13.0957 44.7884 12.9622 44.502 12.6953C44.2155 12.4284 44.0723 12.0898 44.0723 11.6797Z" fill="black"/>
<path d="M52.207 16.4648V29.0625H49.3945V14.4336H52.002L52.207 16.4648ZM58.8965 19.5996V19.8047C58.8965 20.5729 58.8053 21.2858 58.623 21.9434C58.4473 22.6009 58.1868 23.1738 57.8418 23.6621C57.4967 24.1439 57.0671 24.5215 56.5527 24.7949C56.0449 25.0618 55.459 25.1953 54.7949 25.1953C54.1504 25.1953 53.5905 25.0651 53.1152 24.8047C52.64 24.5443 52.2396 24.1797 51.9141 23.7109C51.5951 23.2357 51.3379 22.6855 51.1426 22.0605C50.9473 21.4355 50.7975 20.765 50.6934 20.0488V19.5117C50.7975 18.7435 50.9473 18.0404 51.1426 17.4023C51.3379 16.7578 51.5951 16.2012 51.9141 15.7324C52.2396 15.2572 52.6367 14.8893 53.1055 14.6289C53.5807 14.3685 54.1374 14.2383 54.7754 14.2383C55.446 14.2383 56.0352 14.3652 56.543 14.6191C57.0573 14.873 57.487 15.2376 57.832 15.7129C58.1836 16.1882 58.4473 16.7546 58.623 17.4121C58.8053 18.0697 58.8965 18.7988 58.8965 19.5996ZM56.0742 19.8047V19.5996C56.0742 19.1504 56.0352 18.737 55.957 18.3594C55.8854 17.9753 55.7682 17.64 55.6055 17.3535C55.4492 17.0671 55.2409 16.8457 54.9805 16.6895C54.7266 16.5267 54.4173 16.4453 54.0527 16.4453C53.6686 16.4453 53.3398 16.5072 53.0664 16.6309C52.7995 16.7546 52.5814 16.9336 52.4121 17.168C52.2428 17.4023 52.1159 17.6823 52.0312 18.0078C51.9466 18.3333 51.8945 18.7012 51.875 19.1113V20.4688C51.9076 20.9505 51.9987 21.3835 52.1484 21.7676C52.2982 22.1452 52.5293 22.4447 52.8418 22.666C53.1543 22.8874 53.5645 22.998 54.0723 22.998C54.4434 22.998 54.7559 22.9167 55.0098 22.7539C55.2637 22.5846 55.4688 22.3535 55.625 22.0605C55.7878 21.7676 55.9017 21.429 55.9668 21.0449C56.0384 20.6608 56.0742 20.2474 56.0742 19.8047Z" fill="black"/>
</svg>
